<svg width="43.000000" height="43.000000" viewBox="0 0 43 43" fill="none" xmlns="http://www.w3.org/2000/svg" xmlns:xlink="http://www.w3.org/1999/xlink">
	<desc>
			Created with Pixso.
	</desc>
	<defs>
		<clipPath id="clip60_3075">
			<rect id="free-icon-kitchen-utensil-4790616 1" width="43.712227" height="43.629627" transform="translate(-0.892578 -0.814819)" fill="white" fill-opacity="0"/>
		</clipPath>
	</defs>
	<rect id="free-icon-kitchen-utensil-4790616 1" width="43.712227" height="43.629627" transform="translate(-0.892578 -0.814819)" fill="#FFFFFF" fill-opacity="0"/>
	<g clip-path="url(#clip60_3075)">
		<path id="Rectangle 9" d="M33.54 8.76L37.18 8.64L37.18 21.57L32.79 21.57L33.54 8.76Z" fill="#FFFFFF" fill-opacity="1.000000" fill-rule="nonzero"/>
		<ellipse id="Ellipse 2" cx="22.326172" cy="31.041748" rx="4.336531" ry="5.540270" fill="#FFFFFF" fill-opacity="1.000000"/>
		<path id="Ellipse 3" d="M14.37 12.97C14.37 16.03 12.25 15.51 9.86 15.51C7.46 15.51 5.87 14.7 5.87 13.61C5.87 10.55 7.63 10.15 10.03 10.15C12.42 10.15 14.37 9.91 14.37 12.97Z" fill="#FFFFFF" fill-opacity="1.000000" fill-rule="nonzero"/>
		<path id="Vector" d="M3.71 3.03C3.5 3.15 3.22 3.41 3.07 3.6L2.82 3.97L2.82 8.54L2.82 13.11L3.04 13.68C3.84 15.74 5.57 17.1 7.64 17.31L8.19 17.37L8.24 27.68L8.28 38L8.47 38.3C8.58 38.47 8.83 38.72 9.02 38.86C9.34 39.08 9.45 39.1 10.03 39.1C10.6 39.1 10.72 39.08 11.02 38.87C11.2 38.75 11.45 38.5 11.57 38.32L11.78 38L11.82 27.69L11.86 17.37L12.42 17.31C14.55 17.1 16.41 15.58 17.06 13.54C17.24 12.95 17.24 12.86 17.24 8.46L17.24 3.98L17.01 3.65C16.64 3.12 16.25 2.9 15.59 2.86C14.89 2.83 14.38 3.06 14 3.6L13.74 3.97L13.7 6.11L13.66 8.26L12.76 8.26L11.86 8.26L11.82 6.12C11.78 4.01 11.78 3.98 11.57 3.67C11.21 3.13 10.77 2.9 10.12 2.86C9.42 2.83 8.92 3.06 8.54 3.6L8.28 3.97L8.24 6.11L8.19 8.26L7.3 8.26L6.4 8.26L6.36 6.12L6.32 3.98L6.08 3.65C5.71 3.12 5.32 2.9 4.66 2.86C4.19 2.84 4.03 2.87 3.71 3.03ZM13.62 12.13C13.62 12.65 13.2 13.22 12.59 13.55C12.32 13.69 12.08 13.71 10.03 13.71C7.88 13.71 7.75 13.7 7.42 13.52C6.84 13.22 6.44 12.64 6.44 12.13L6.44 11.88L10.03 11.88L13.62 11.88L13.62 12.13Z" fill="#FF7020" fill-opacity="1.000000" fill-rule="nonzero"/>
		<path id="Vector" d="M21.41 3.03C21.2 3.15 20.91 3.41 20.77 3.6L20.51 3.97L20.47 13.47L20.43 22.97L19.71 23.19C17.92 23.7 16.58 24.77 15.83 26.28C15.17 27.62 15.06 28.17 15.06 30.11C15.06 31.54 15.08 31.88 15.24 32.5C16.07 35.8 17.93 38.05 20.51 38.91C21.02 39.07 21.29 39.1 22.26 39.1C23.24 39.1 23.51 39.07 24.01 38.91C26.6 38.05 28.45 35.8 29.29 32.5C29.44 31.88 29.47 31.54 29.47 30.11C29.47 28.68 29.44 28.36 29.28 27.77C28.64 25.41 27.11 23.84 24.82 23.19L24.1 22.97L24.06 13.48L24.01 3.98L23.78 3.65C23.41 3.12 23.01 2.9 22.36 2.86C21.89 2.84 21.73 2.87 21.41 3.03ZM23.94 26.7C24.9 27.03 25.52 27.77 25.76 28.84C25.93 29.58 25.83 31.44 25.59 32.2C25.15 33.6 24.3 34.77 23.39 35.23C22.82 35.52 21.72 35.53 21.15 35.24C20.18 34.74 19.4 33.65 18.92 32.16C18.75 31.6 18.72 31.35 18.72 30.11C18.72 28.74 18.73 28.7 18.97 28.17C19.4 27.25 20.26 26.65 21.41 26.5C21.41 26.5 23.41 26.53 23.94 26.7Z" fill="#FF7020" fill-opacity="1.000000" fill-rule="nonzero"/>
		<path id="Vector" d="M37.87 3C36.78 3.57 35.09 5.12 34.05 6.49C31.45 9.94 29.94 14.82 29.59 20.91C29.46 23.14 29.52 23.47 30.11 24.06C30.68 24.63 30.84 24.66 34.08 24.66L36.86 24.66L36.86 31.25L36.86 37.84L37.06 38.2C37.16 38.4 37.42 38.69 37.62 38.84C37.96 39.08 38.04 39.1 38.65 39.1C39.23 39.1 39.35 39.08 39.65 38.87C39.83 38.75 40.08 38.5 40.19 38.32L40.41 38L40.41 21L40.41 3.98L40.18 3.65C39.8 3.11 39.41 2.9 38.75 2.86C38.32 2.84 38.11 2.87 37.87 3ZM36.86 14.94L36.86 21L35.05 21L33.25 21L33.31 20.12C33.47 17.77 34.04 14.94 34.78 12.86C35.28 11.48 36.61 8.89 36.82 8.89C36.85 8.89 36.86 11.61 36.86 14.94Z" fill="#FF7020" fill-opacity="1.000000" fill-rule="nonzero"/>
	</g>
</svg>
